<?xml version="1.0" encoding="utf-8"?>
<!-- Generator: Adobe Illustrator 17.0.0, SVG Export Plug-In . SVG Version: 6.00 Build 0)  -->
<!DOCTYPE svg PUBLIC "-//W3C//DTD SVG 1.1//EN" "http://www.w3.org/Graphics/SVG/1.1/DTD/svg11.dtd">
<svg version="1.1" id="Layer_1" xmlns="http://www.w3.org/2000/svg" xmlns:xlink="http://www.w3.org/1999/xlink" x="0px" y="0px"
	 width="54.283px" height="38.411px" viewBox="0 0 54.283 38.411" enable-background="new 0 0 54.283 38.411" xml:space="preserve">
<path fill="#455CC7" d="M0.374,15.067c0,0,4.151,0.529,5.744-2.021c0,0,5.319-12.953,14.05-12.467c0,0,1.559,0.405,3.305,2.024
	c0,0,2.183,2.51,4.677,0c0,0,4.303-5.91,10.976,0.081c0,0,4.802,4.534,8.482,8.096c0,0,1.933,2.834,6.673,1.053
	c0,0-0.499,2.834-2.994,5.506c0,0-3.991,4.858-6.112,10.687c0,0-2.308,9.797-9.48,10.12c0,0-2.869-0.162-4.553-0.972
	c0,0-3.68-1.133-9.23-0.162c0,0-9.043,2.753-11.662-6.396c0,0-2.37-6.558-4.054-8.258C6.199,22.358,1.41,17.167,0.374,15.067z"/>
<path fill="#FFFFFF" d="M31.345,8.941v3.596c0,0-4.664-1.188-3.842,3.19h3.842v3.337h-3.596v10.922H23.22V19.464l-2.448,0.005
	v-3.733l2.448-0.001C23.22,15.734,21.489,6.81,31.345,8.941z"/>
</svg>
