<?xml version="1.0" encoding="utf-8"?>
<!-- Generator: Adobe Illustrator 17.0.0, SVG Export Plug-In . SVG Version: 6.00 Build 0)  -->
<!DOCTYPE svg PUBLIC "-//W3C//DTD SVG 1.1//EN" "http://www.w3.org/Graphics/SVG/1.1/DTD/svg11.dtd">
<svg version="1.1" id="Layer_1" xmlns="http://www.w3.org/2000/svg" xmlns:xlink="http://www.w3.org/1999/xlink" x="0px" y="0px"
	 width="40.441px" height="149.557px" viewBox="0 0 40.441 149.557" enable-background="new 0 0 40.441 149.557"
	 xml:space="preserve">
<path fill="#A762A7" d="M8.56,30.125l0.026-15.523c0,0-1.043-5.346,17.978-13.996c0,0,2.425-1.369,3.577,0.006
	c0,0,2.533,3.57,1.795,30.11L8.56,30.125z"/>
<path fill="#B57DB6" d="M10.718,11.411c0,0,20.301-7.652,17.551-10.558c0,0-0.302-0.615-3.477,0.916
	C21.113,3.544,13.87,7.093,10.718,11.411z"/>
<ellipse transform="matrix(1 0.0017 -0.0017 1 0.1138 -0.0344)" fill="#393F46" cx="20.241" cy="66.759" rx="17.224" ry="2.59"/>
<path fill="#252B33" d="M20.315,23.587c-8.903-0.015-16.123,1.132-16.126,2.562L4.103,76.673l32.243,0.055l0.086-50.524
	C36.434,24.774,29.218,23.602,20.315,23.587z"/>
<path fill="#111820" d="M20.184,81.075c-8.747-0.272-9.602-0.033-19.856-1.484l2.553,62.037c0,0,0.435,5.502,4.975,6.632
	c0,0,3.417,1.611,12.211,1.244c6.7,0.324,11.867-1.063,11.867-1.063c4.423-1.176,5.347-6.754,5.347-6.754l2.764-62.027
	C31.889,80.763,20.184,81.075,20.184,81.075z"/>
<path fill="#393F46" d="M0.007,76.579L0,80.948c0,0,1.13,2.482,19.653,2.452c0,0,16.12,0.51,20.389-2.42l0.398-4.217
	c0,0-6.752,1.828-20.802,1.96C19.638,78.722,7.912,78.771,0.007,76.579z"/>
<ellipse transform="matrix(1 0.0017 -0.0017 1 0.1306 -0.0344)" fill="#252B33" cx="20.224" cy="76.613" rx="20.217" ry="2.59"/>
<path fill="#393F46" d="M3.016,66.729L2.999,76.759c0,0,19.282,2.823,34.45-0.548l0.016-9.423
	C37.465,66.788,20.601,68.981,3.016,66.729z"/>
<g>
	<path fill="#FFFFFF" d="M2.984,85.742c0,0,1.23,55.946,2.486,56.891"/>
	<path fill="#FFFFFF" d="M2.984,85.742c0,0,0.052,0.889,0.143,2.446c0.078,1.557,0.189,3.781,0.323,6.449
		c0.112,2.669,0.244,5.783,0.384,9.119c0.122,3.336,0.251,6.895,0.381,10.454c0.223,7.118,0.446,14.236,0.613,19.574
		c0.108,2.667,0.173,4.892,0.293,6.444c0.059,0.776,0.108,1.385,0.174,1.797c0.031,0.206,0.064,0.362,0.101,0.463
		c0.029,0.104,0.08,0.14,0.074,0.144c0.007-0.003-0.048-0.037-0.085-0.139c-0.045-0.099-0.09-0.254-0.137-0.458
		c-0.093-0.408-0.202-1.014-0.299-1.789c-0.192-1.549-0.434-3.767-0.622-6.434c-0.185-2.667-0.412-5.778-0.563-9.115
		c-0.14-3.337-0.29-6.897-0.44-10.457c-0.089-3.561-0.179-7.123-0.263-10.462c-0.079-3.339-0.08-6.457-0.112-9.128
		c-0.028-2.672,0.005-4.899,0.004-6.458C2.973,86.633,2.984,85.742,2.984,85.742z"/>
</g>
</svg>
