<?xml version="1.0" encoding="utf-8"?>
<!-- Generator: Adobe Illustrator 17.0.0, SVG Export Plug-In . SVG Version: 6.00 Build 0)  -->
<!DOCTYPE svg PUBLIC "-//W3C//DTD SVG 1.1//EN" "http://www.w3.org/Graphics/SVG/1.1/DTD/svg11.dtd">
<svg version="1.1" id="Layer_1" xmlns="http://www.w3.org/2000/svg" xmlns:xlink="http://www.w3.org/1999/xlink" x="0px" y="0px"
	 width="54.283px" height="38.411px" viewBox="0 0 54.283 38.411" enable-background="new 0 0 54.283 38.411" xml:space="preserve">
<g>
	<path fill="#A41F35" d="M0.29,15.42c0,0,4.135,0.527,5.722-2.013c0,0,5.299-12.903,13.997-12.42c0,0,1.553,0.403,3.293,2.016
		c0,0,2.174,2.5,4.66,0c0,0,4.287-5.888,10.934,0.081c0,0,4.784,4.517,8.449,8.065c0,0,1.926,2.823,6.648,1.049
		c0,0-0.497,2.823-2.982,5.485c0,0-3.976,4.839-6.088,10.646c0,0-2.299,9.759-9.443,10.082c0,0-2.858-0.161-4.535-0.968
		c0,0-3.666-1.129-9.195-0.161c0,0-9.008,2.742-11.618-6.372c0,0-2.361-6.533-4.038-8.227C6.093,22.683,1.322,17.512,0.29,15.42z"/>
	<path fill="#FFFFFF" d="M25.291,9.334h3.101v4.307l3.914,0.042l-0.028,3.404h-3.65c0,0-0.002,3.793,0.087,6.427
		c0.047,1.392,0.052,1.577,0.34,1.858c0,0,1.571,0.901,3.283-0.676v3.404c0,0-0.293,1.32-3.715,1.192
		c-0.994-0.037-2.085-0.101-2.792-0.381c-0.566-0.224-1.409-1.365-1.368-2.538c0,0-0.003-4.716,0.045-9.366l-3.351,0.026v-3.465
		C21.156,13.569,25.536,14.463,25.291,9.334z"/>
</g>
</svg>
