<?xml version="1.0" encoding="utf-8"?>
<!-- Generator: Adobe Illustrator 17.0.0, SVG Export Plug-In . SVG Version: 6.00 Build 0)  -->
<!DOCTYPE svg PUBLIC "-//W3C//DTD SVG 1.1//EN" "http://www.w3.org/Graphics/SVG/1.1/DTD/svg11.dtd">
<svg version="1.1" id="Layer_1" xmlns="http://www.w3.org/2000/svg" xmlns:xlink="http://www.w3.org/1999/xlink" x="0px" y="0px"
	 width="54.283px" height="38.411px" viewBox="0 0 54.283 38.411" enable-background="new 0 0 54.283 38.411" xml:space="preserve">
<g>
	<path fill="#008375" d="M0,15.171c0,0,4.18,0.533,5.784-2.035c0,0,5.356-13.043,14.148-12.554c0,0,1.57,0.408,3.328,2.038
		c0,0,2.198,2.527,4.71,0c0,0,4.333-5.951,11.053,0.082c0,0,4.835,4.565,8.541,8.153c0,0,1.947,2.853,6.719,1.06
		c0,0-0.502,2.853-3.014,5.544c0,0-4.019,4.892-6.154,10.761c0,0-2.324,9.865-9.545,10.191c0,0-2.889-0.163-4.584-0.978
		c0,0-3.705-1.141-9.294-0.163c0,0-9.106,2.772-11.743-6.441c0,0-2.386-6.604-4.082-8.316C5.865,22.513,1.043,17.286,0,15.171z"/>
	<path fill="#FFFFFF" d="M26.997,15.382c0,0-0.481-3.751,2.02-4.809c0,0,3.066-2.379,6.252,0.769c0,0,1.443-0.289,2.501-1.058
		c0,0,0.096,1.56-0.866,2.319c0,0,0.866-0.107,1.635-0.588c0,0-0.385,1.635-1.539,2.501c0,0,0.866,7.599-5.867,11.927
		c0,0-7.021,5.386-15.39-0.481c0,0,6.348-0.096,7.118-1.828c0,0-3.559,0.385-4.809-2.886c0,0,2.116,0,2.886-0.481
		c0,0-3.751-0.385-4.328-4.328c0,0,1.443,0.577,2.693,0.385c0,0-3.366-1.828-1.731-6.541C17.571,10.284,21.515,15.382,26.997,15.382
		z"/>
</g>
</svg>
