<?xml version="1.0" encoding="utf-8"?>
<!-- Generator: Adobe Illustrator 17.0.0, SVG Export Plug-In . SVG Version: 6.00 Build 0)  -->
<!DOCTYPE svg PUBLIC "-//W3C//DTD SVG 1.1//EN" "http://www.w3.org/Graphics/SVG/1.1/DTD/svg11.dtd">
<svg version="1.1" id="Layer_1" xmlns="http://www.w3.org/2000/svg" xmlns:xlink="http://www.w3.org/1999/xlink" x="0px" y="0px"
	 width="248.258px" height="136.161px" viewBox="0 0 248.258 136.161" enable-background="new 0 0 248.258 136.161"
	 xml:space="preserve">
<g>
	<path fill="#B03D46" d="M3.574,57.985c6.661,0.617,13.891-0.081,20.108-2.579c4.983-2.002,7.559-5.12,10.212-9.388
		C42.173,32.705,53.62,20.741,67.741,13.69c7.564-3.777,17.873-6.793,26.104-3.874c8.5,3.014,14.459,10.795,24.266,9.428
		c6.664-0.928,10.34-5.379,15.738-8.529c8.482-4.951,18.332-4.69,27.379-1.506c6.769,2.383,12.48,6.911,18.205,11.093
		c8.178,5.973,16.341,11.966,24.48,17.992c3.826,2.832,7.561,6.38,11.982,8.275c8.403,3.603,17.775,2.654,26.379,0.306
		c-1.415-1.415-2.83-2.83-4.245-4.245c-1.822,7.501-7.822,12.787-13.091,17.931c-6.539,6.382-12.383,13.507-17.673,20.945
		c-8.016,11.272-11.52,25.17-20.97,35.421c-6.71,7.28-15.68,11.71-25.552,12.504c-7.281,0.585-14.355-1.865-21.35-3.285
		c-15.085-3.061-30.377-1.679-45.472,0.281c-8.999,1.168-18.275,0.615-26.782-2.689c-10.765-4.181-14.596-13.506-19.429-23.001
		c-4.646-9.127-9.694-18.504-17.589-25.208c-8.017-6.807-17.66-13.936-23.566-22.735c-2.466-3.675-8.449-0.224-5.96,3.484
		c4.625,6.89,11.415,12.489,17.558,17.968c4.488,4.004,9.623,7.619,13.24,12.475c9.593,12.877,13.15,30.859,26.925,40.136
		c11.212,7.552,26.341,8.116,39.272,5.943c15.421-2.592,30.649-1.943,45.734,1.577c13.64,3.183,27.285,2.515,39.288-5.31
		c9.114-5.942,15.949-15.291,20.212-25.196c5.273-12.251,12.752-22.995,21.706-32.91c7.409-8.205,17.402-15.16,20.155-26.495
		c0.616-2.537-1.649-4.954-4.245-4.245c-7.802,2.13-18.454,3.641-25.305-1.967c-7.704-6.306-15.974-12.011-24.007-17.902
		c-15.164-11.121-30.7-23.786-50.847-19.492c-5.851,1.247-11.476,4.262-15.934,8.228c-8.067,7.178-14.862,1.205-21.614-2.707
		c-8.362-4.844-15.926-5.231-25.299-3.323c-9.336,1.901-18.065,6.683-25.522,12.49c-9.537,7.427-17.549,16.772-23.977,26.988
		c-2.237,3.555-3.778,5.46-8.191,7.006c-5.043,1.767-10.871,2.033-16.17,1.542C-0.859,50.672-0.82,57.578,3.574,57.985z"/>
</g>
<path fill="#BB5458" d="M3.574,54.534c0,0,18.308,1.798,25.337-6.866c0,0,23.462-44.009,61.974-42.359c0,0,6.877,1.375,14.579,6.877
	c0,0,9.628,8.528,20.631,0c0,0,18.981-20.081,48.415,0.275c0,0,21.181,15.405,37.411,27.508c0,0,8.528,9.628,29.434,3.576
	c0,0-2.201,9.628-13.204,18.706c0,0-17.605,16.505-26.958,36.311c0,0-10.178,33.285-41.813,34.386c0,0-12.654-0.55-20.081-3.301
	c0,0-16.23-3.851-40.712-0.55c0,0-39.887,9.353-51.441-21.732c0,0-10.453-22.282-17.88-28.059
	C29.266,79.307,8.141,61.67,3.574,54.534z"/>
<path fill="#B03D46" d="M19.775,63.406c0,0,13.352-7.069,19.242-16.101c0,0,27.881-38.877,60.868-22.384
	c0,0,16.493,9.032,30.238-1.178c0,0,24.74-23.169,62.439,15.708c0,0,18.849,16.493,32.594,16.493c0,0-28.653,19.73-67.544-3.927
	c0,0-29.059-18.849-38.091,3.142c0,0-9.817-20.027-33.772,0.393C85.748,55.552,50.405,77.543,19.775,63.406z"/>
<path fill="#B03D46" d="M31.134,72.78c0,0,19.549,5.294,37.876,24.843c0,0,14.662,19.956,37.876,9.774
	c0,0,15.069-3.585,26.065,1.058c0,0,32.174,9.938,44.392-16.535c0,0,7.738-14.254,27.694-22.807c0,0-65.977-7.331-83.897,18.327
	C121.14,87.442,108.108,59.341,31.134,72.78z"/>
<path fill="#FFFFFF" d="M63.14,16.893c0,0,13.969-14.287,26.016-7.564c0,0,3.018,4.876-3.761,4.615
	C85.395,13.944,79.08,12.15,63.14,16.893z"/>
<path fill="#FFFFFF" d="M51.345,24.063c0,0,0.782-4.041,5.605-4.823c0,0,2.216,0-1.695,2.412L51.345,24.063z"/>
<path fill="#A41F35" d="M119.52,55.159c0,0-10.495-14.896-21.668-0.737c0,0-4.996,12.543,10.145,18.835
	c0,0,11.012,6.293,13.143,14.185c0,0,6.914-11.235,14.19-15.365c0,0,13.411-7.612,8.342-18.873
	C143.672,53.205,130.177,37.075,119.52,55.159z"/>
<path fill="#FFFFFF" d="M160.295,122.537c0,0,3.423-2.976,19.42-4.985c0,0,7.828-1.479,11.979-5.583c0,0-13.69,19.72-29.767,16.833
	C161.927,128.802,156.649,126.481,160.295,122.537z"/>
<line fill="none" x1="41.928" y1="87.432" x2="247.706" y2="87.452"/>
<text transform="matrix(1 9.000000e-05 -9.000000e-05 1 48.1158 87.433)"><tspan x="0" y="0" fill="#FFFFFF" font-family="'Optima-Bold'" font-size="81.4496">u</tspan><tspan x="45.279" y="0" fill="#FFFFFF" font-family="'Optima-Bold'" font-size="81.4496">s</tspan><tspan x="76.964" y="0" fill="#FFFFFF" font-family="'Optima-Bold'" font-size="81.4496">t</tspan><tspan x="104.101" y="0.001" fill="#FFFFFF" font-family="'Optima-Bold'" font-size="81.4496">a</tspan></text>
</svg>
